@startuml
class тест{
  +номер теста
  +результаты
  отрправить результаты()
}
class клиент_тестирования{
  +IP клиента
  +имя клиента
  выполнение теста()
  просмотр отчета()
}
class менеджер_тестирования{
  +IP менеджера
  запуск теста()
  формирование отчета()
}

клиент_тестирования --> менеджер_тестирования: запрашивает начало теста 
менеджер_тестирования --> тест: открывает 
тест --> менеджер_тестирования: отправляет результаты 
менеджер_тестирования --> клиент_тестирования: отправляет отчет 
клиент_тестирования..> тест: выполнение теста
@enduml